<svg aria-hidden="true" style="position: absolute; width: 0; height: 0; overflow: hidden;" version="1.1"
  xmlns="http://www.w3.org/2000/svg" xmlns:xlink="http://www.w3.org/1999/xlink">
  <defs>
    <symbol id="icon-twitter" viewBox="0 0 32 32">
      <path fill="none" stroke-linejoin="round" stroke-linecap="butt" stroke-miterlimit="4" stroke-width="2.2667"
        stroke="#568518"
        d="M28 8.726c-0.883 0.391-1.831 0.655-2.827 0.775 1.017-0.609 1.797-1.575 2.165-2.725-0.951 0.564-2.005 0.975-3.127 1.194-0.898-0.956-2.177-1.554-3.594-1.554-2.719 0-4.923 2.205-4.923 4.926 0 0.385 0.044 0.759 0.127 1.12-4.094-0.206-7.72-2.167-10.149-5.145-0.423 0.729-0.666 1.575-0.666 2.475 0 1.708 0.87 3.216 2.19 4.099-0.808-0.026-1.566-0.247-2.23-0.616v0.063c0 2.386 1.696 4.376 3.95 4.828-0.414 0.112-0.849 0.171-1.297 0.171-0.317 0-0.627-0.030-0.927-0.087 0.627 1.955 2.445 3.38 4.6 3.418-1.686 1.321-3.809 2.109-6.116 2.109-0.397 0-0.79-0.023-1.175-0.069 2.179 1.398 4.767 2.212 7.547 2.212 9.058 0 14.010-7.502 14.010-14.009 0-0.211-0.005-0.425-0.015-0.636 0.962-0.696 1.797-1.561 2.455-2.547l0.002-0.003z">
      </path>
    </symbol>
    <symbol id="icon-youtube" viewBox="0 0 32 32">
      <path fill="none" stroke-linejoin="round" stroke-linecap="butt" stroke-miterlimit="4" stroke-width="2.2667"
        stroke="#568518"
        d="M27.46 5.947c-2.287-0.613-11.46-0.613-11.46-0.613s-9.173 0-11.46 0.613c-1.263 0.338-2.255 1.33-2.593 2.593-0.613 2.287-0.613 7.061-0.613 7.061s0 4.774 0.613 7.060c0.338 1.263 1.33 2.255 2.593 2.593 2.287 0.613 11.46 0.613 11.46 0.613s9.173 0 11.46-0.613c1.263-0.338 2.255-1.33 2.593-2.593 0.613-2.287 0.613-7.060 0.613-7.060s-0.002-4.774-0.613-7.061c-0.338-1.263-1.331-2.255-2.593-2.593zM20.685 15.601l-7.621 4.399v-8.799l7.621 4.4z">
      </path>
    </symbol>
    <symbol id="icon-instagram" viewBox="0 0 32 32">
      <path fill="none" stroke-linejoin="round" stroke-linecap="butt" stroke-miterlimit="4" stroke-width="2.2667"
        stroke="#568518"
        d="M5.407 10.257c0.056-1.219 0.247-2.006 0.505-2.673l0.003-0.009c0.256-0.679 0.657-1.295 1.174-1.803l0.007-0.007 0.007-0.007c0.509-0.518 1.124-0.919 1.803-1.174l0.012-0.004c0.666-0.259 1.451-0.449 2.671-0.505M5.407 10.257c-0.059 1.303-0.074 1.707-0.074 5.084s0.014 3.781 0.074 5.084M5.407 10.257v0.329M5.916 23.108c0.255 0.679 0.656 1.294 1.174 1.803l0.007 0.007 0.007 0.007c0.509 0.518 1.124 0.919 1.803 1.175l0.010 0.004c0.667 0.259 1.452 0.449 2.672 0.505M5.916 23.108l-0.004-0.012c-0.259-0.666-0.449-1.451-0.505-2.671M5.916 23.108l-0.015-0.081M5.407 20.425l0.020 0.105M5.407 20.425v-0.329M5.901 23.027l-0.474-2.497M5.901 23.027c-0.201-0.532-0.409-1.274-0.474-2.497M5.901 23.027c0.007 0.019 0.014 0.037 0.021 0.055 0.255 0.688 0.66 1.312 1.185 1.825 0.513 0.525 1.137 0.929 1.825 1.185 0.552 0.215 1.331 0.44 2.658 0.501 1.339 0.061 1.753 0.073 5.084 0.073s3.745-0.012 5.085-0.073c1.329-0.061 2.106-0.287 2.657-0.5 0.689-0.255 1.312-0.66 1.826-1.185 0.525-0.513 0.929-1.136 1.185-1.825 0.215-0.552 0.44-1.331 0.501-2.658 0.061-1.339 0.073-1.754 0.073-5.084s-0.012-3.745-0.073-5.085c-0.061-1.336-0.289-2.114-0.504-2.665-0.28-0.724-0.636-1.271-1.182-1.818-0.545-0.544-1.091-0.9-1.816-1.181-0.553-0.216-1.332-0.443-2.666-0.504-0.116-0.005-0.225-0.010-0.33-0.015M5.427 20.53c-0.002-0.035-0.004-0.069-0.005-0.105-0.005-0.116-0.010-0.225-0.015-0.33M11.59 4.074c1.303-0.059 1.707-0.074 5.084-0.074s3.781 0.015 5.084 0.074M11.59 4.074h0.329M21.758 4.074h-0.329M21.758 4.074c1.219 0.056 2.006 0.247 2.673 0.505l0.009 0.003c0.679 0.256 1.295 0.657 1.803 1.174l0.007 0.007 0.007 0.007c0.518 0.509 0.919 1.124 1.174 1.803l0.004 0.011c0.259 0.666 0.449 1.451 0.505 2.671M11.919 4.074h9.51M11.919 4.074c1.103-0.048 1.713-0.059 4.755-0.059s3.652 0.010 4.755 0.059M11.919 4.074c-0.105 0.005-0.214 0.010-0.33 0.015-1.329 0.061-2.106 0.287-2.657 0.5-0.691 0.256-1.317 0.663-1.831 1.191-0.541 0.544-0.896 1.088-1.176 1.81-0.216 0.553-0.443 1.332-0.504 2.666-0.005 0.116-0.010 0.225-0.015 0.329M27.941 20.425c-0.056 1.22-0.246 2.005-0.504 2.672l-0.004 0.010c-0.256 0.679-0.657 1.295-1.174 1.803l-0.014 0.014c-0.509 0.519-1.125 0.919-1.803 1.174l-0.012 0.004c-0.666 0.259-1.451 0.449-2.671 0.505M5.407 20.096c-0.048-1.103-0.059-1.713-0.059-4.755s0.010-3.652 0.059-4.755M5.407 20.096l0-9.51M14.657 20.21c0.639 0.265 1.325 0.401 2.017 0.401 1.398 0 2.739-0.555 3.727-1.544s1.544-2.329 1.544-3.727-0.555-2.739-1.544-3.727c-0.989-0.988-2.329-1.544-3.727-1.544-0.692 0-1.378 0.136-2.017 0.401s-1.221 0.653-1.71 1.143c-0.489 0.489-0.878 1.070-1.143 1.71s-0.401 1.325-0.401 2.017 0.136 1.378 0.401 2.017c0.265 0.639 0.653 1.221 1.143 1.71s1.070 0.878 1.71 1.143zM12.935 11.602c0.992-0.992 2.336-1.549 3.739-1.549s2.747 0.557 3.739 1.549c0.992 0.992 1.549 2.336 1.549 3.739s-0.557 2.747-1.549 3.739c-0.992 0.992-2.337 1.549-3.739 1.549s-2.747-0.557-3.739-1.549c-0.992-0.992-1.549-2.337-1.549-3.739s0.557-2.747 1.549-3.739z">
      </path>
      <path
        d="M24.719 8.614c0 0.736-0.597 1.333-1.333 1.333s-1.333-0.597-1.333-1.333c0-0.736 0.597-1.333 1.333-1.333s1.333 0.597 1.333 1.333z">
      </path>
    </symbol>
    <symbol id="icon-facebook" viewBox="0 0 32 32">
      <path fill="none" stroke-linejoin="round" stroke-linecap="butt" stroke-miterlimit="4" stroke-width="2.2667"
        stroke="#568518"
        d="M21.761 17.499l0.702-4.341h-4.323v-2.822c0-1.187 0.603-2.347 2.533-2.347h1.993v-3.697c-1.161-0.18-2.333-0.278-3.509-0.292-3.558 0-5.881 2.083-5.881 5.847v3.31h-3.944v4.341h3.944v10.501h4.863v-10.501h3.621z">
      </path>
    </symbol>
    <symbol id="icon-search" viewBox="0 0 32 32">
      <path
        d="M20.667 18.667h-1.053l-0.373-0.36c1.6-1.867 2.427-4.413 1.973-7.12-0.627-3.707-3.72-6.667-7.453-7.12-5.64-0.693-10.387 4.053-9.693 9.693 0.453 3.733 3.413 6.827 7.12 7.453 2.707 0.453 5.253-0.373 7.12-1.973l0.36 0.373v1.053l5.667 5.667c0.547 0.547 1.44 0.547 1.987 0s0.547-1.44 0-1.987l-5.653-5.68zM12.667 18.667c-3.32 0-6-2.68-6-6s2.68-6 6-6c3.32 0 6 2.68 6 6s-2.68 6-6 6z">
      </path>
    </symbol>
    <symbol id="icon-reporting" viewBox="0 0 32 32">
      <path fill="#568518"
        d="M7.111 0h17.778c3.927 0 7.111 3.184 7.111 7.111v17.778c0 3.927-3.184 7.111-7.111 7.111h-17.778c-3.927 0-7.111-3.184-7.111-7.111v-17.778c0-3.927 3.184-7.111 7.111-7.111z">
      </path>
      <path fill="none" stroke="#000" stroke-linejoin="round" stroke-linecap="round" stroke-miterlimit="4"
        stroke-width="1.7778" d="M26.667 13.333l-3.556 4.444-3.556-9.778-3.556 16-3.556-9.778-3.556 6.222-3.556-4.444">
      </path>
    </symbol>
    <symbol id="icon-inventory" viewBox="0 0 32 32">
      <path fill="#568518"
        d="M7.111 0h17.778c3.927 0 7.111 3.184 7.111 7.111v17.778c0 3.927-3.184 7.111-7.111 7.111h-17.778c-3.927 0-7.111-3.184-7.111-7.111v-17.778c0-3.927 3.184-7.111 7.111-7.111z">
      </path>
      <path fill="#fff" opacity="0.5"
        d="M7.111 15.111c0-0.236 0.094-0.462 0.26-0.629s0.393-0.26 0.629-0.26h16c0.236 0 0.462 0.094 0.629 0.26s0.26 0.393 0.26 0.629v1.778c0 0.236-0.094 0.462-0.26 0.629s-0.393 0.26-0.629 0.26h-16c-0.236 0-0.462-0.094-0.629-0.26s-0.26-0.393-0.26-0.629v-1.778z">
      </path>
      <path fill="#fff" opacity="0.3"
        d="M7.111 21.333c0-0.236 0.094-0.462 0.26-0.629s0.393-0.26 0.629-0.26h16c0.236 0 0.462 0.094 0.629 0.26s0.26 0.393 0.26 0.629v1.778c0 0.236-0.094 0.462-0.26 0.629s-0.393 0.26-0.629 0.26h-16c-0.236 0-0.462-0.094-0.629-0.26s-0.26-0.393-0.26-0.629v-1.778z">
      </path>
      <path fill="#fff"
        d="M7.111 8.889c0-0.236 0.094-0.462 0.26-0.629s0.393-0.26 0.629-0.26h16c0.236 0 0.462 0.094 0.629 0.26s0.26 0.393 0.26 0.629v1.778c0 0.236-0.094 0.462-0.26 0.629s-0.393 0.26-0.629 0.26h-16c-0.236 0-0.462-0.094-0.629-0.26s-0.26-0.393-0.26-0.629v-1.778z">
      </path>
    </symbol>
    <symbol id="icon-contacts" viewBox="0 0 32 32">
      <path fill="#568518"
        d="M7.111 0h17.778c3.927 0 7.111 3.184 7.111 7.111v17.778c0 3.927-3.184 7.111-7.111 7.111h-17.778c-3.927 0-7.111-3.184-7.111-7.111v-17.778c0-3.927 3.184-7.111 7.111-7.111z">
      </path>
      <path fill="#fff" opacity="0.5"
        d="M22.914 22.914c0.347 0.347 0.913 0.349 1.23-0.025 1.632-1.924 2.526-4.366 2.523-6.889 0-5.891-4.776-10.667-10.667-10.667s-10.667 4.776-10.667 10.667c0 2.626 0.948 5.030 2.523 6.889 0.317 0.374 0.883 0.372 1.23 0.025s0.343-0.907 0.032-1.287c-1.301-1.586-2.010-3.575-2.007-5.627 0-4.909 3.98-8.889 8.889-8.889s8.889 3.98 8.889 8.889c0.003 2.051-0.706 4.040-2.007 5.627-0.311 0.38-0.315 0.94 0.032 1.287z">
      </path>
      <path fill="#fff"
        d="M10.667 25.24v-0.351c0-1.415 0.562-2.771 1.562-3.771s2.357-1.562 3.771-1.562 2.771 0.562 3.771 1.562c1 1 1.562 2.357 1.562 3.771v0.351c-1.621 0.938-3.461 1.43-5.333 1.427-1.943 0-3.764-0.519-5.333-1.427zM18.667 14.667c0-1.718-0.444-3.111-2.667-3.111s-2.667 1.393-2.667 3.111c0 1.718 1.194 3.111 2.667 3.111s2.667-1.393 2.667-3.111z">
      </path>
    </symbol>

  </defs>
</svg>