<svg aria-hidden="true" style="position: absolute; width: 0; height: 0; overflow: hidden;" version="1.1"
  xmlns="http://www.w3.org/2000/svg" xmlns:xlink="http://www.w3.org/1999/xlink">
  <defs>
    <symbol id="icon-twitter" viewBox="0 0 32 32">
      <path fill="none" stroke-linejoin="round" stroke-linecap="butt" stroke-miterlimit="4" stroke-width="2.2667"
        stroke="#568518"
        d="M28 8.726c-0.883 0.391-1.831 0.655-2.827 0.775 1.017-0.609 1.797-1.575 2.165-2.725-0.951 0.564-2.005 0.975-3.127 1.194-0.898-0.956-2.177-1.554-3.594-1.554-2.719 0-4.923 2.205-4.923 4.926 0 0.385 0.044 0.759 0.127 1.12-4.094-0.206-7.72-2.167-10.149-5.145-0.423 0.729-0.666 1.575-0.666 2.475 0 1.708 0.87 3.216 2.19 4.099-0.808-0.026-1.566-0.247-2.23-0.616v0.063c0 2.386 1.696 4.376 3.95 4.828-0.414 0.112-0.849 0.171-1.297 0.171-0.317 0-0.627-0.030-0.927-0.087 0.627 1.955 2.445 3.38 4.6 3.418-1.686 1.321-3.809 2.109-6.116 2.109-0.397 0-0.79-0.023-1.175-0.069 2.179 1.398 4.767 2.212 7.547 2.212 9.058 0 14.010-7.502 14.010-14.009 0-0.211-0.005-0.425-0.015-0.636 0.962-0.696 1.797-1.561 2.455-2.547l0.002-0.003z">
      </path>
    </symbol>
    <symbol id="icon-youtube" viewBox="0 0 32 32">
      <path fill="none" stroke-linejoin="round" stroke-linecap="butt" stroke-miterlimit="4" stroke-width="2.2667"
        stroke="#568518"
        d="M27.46 5.947c-2.287-0.613-11.46-0.613-11.46-0.613s-9.173 0-11.46 0.613c-1.263 0.338-2.255 1.33-2.593 2.593-0.613 2.287-0.613 7.061-0.613 7.061s0 4.774 0.613 7.060c0.338 1.263 1.33 2.255 2.593 2.593 2.287 0.613 11.46 0.613 11.46 0.613s9.173 0 11.46-0.613c1.263-0.338 2.255-1.33 2.593-2.593 0.613-2.287 0.613-7.060 0.613-7.060s-0.002-4.774-0.613-7.061c-0.338-1.263-1.331-2.255-2.593-2.593zM20.685 15.601l-7.621 4.399v-8.799l7.621 4.4z">
      </path>
    </symbol>
    <symbol id="icon-instagram" viewBox="0 0 32 32">
      <path fill="none" stroke-linejoin="round" stroke-linecap="butt" stroke-miterlimit="4" stroke-width="2.2667"
        stroke="#568518"
        d="M5.407 10.257c0.056-1.219 0.247-2.006 0.505-2.673l0.003-0.009c0.256-0.679 0.657-1.295 1.174-1.803l0.007-0.007 0.007-0.007c0.509-0.518 1.124-0.919 1.803-1.174l0.012-0.004c0.666-0.259 1.451-0.449 2.671-0.505M5.407 10.257c-0.059 1.303-0.074 1.707-0.074 5.084s0.014 3.781 0.074 5.084M5.407 10.257v0.329M5.916 23.108c0.255 0.679 0.656 1.294 1.174 1.803l0.007 0.007 0.007 0.007c0.509 0.518 1.124 0.919 1.803 1.175l0.010 0.004c0.667 0.259 1.452 0.449 2.672 0.505M5.916 23.108l-0.004-0.012c-0.259-0.666-0.449-1.451-0.505-2.671M5.916 23.108l-0.015-0.081M5.407 20.425l0.020 0.105M5.407 20.425v-0.329M5.901 23.027l-0.474-2.497M5.901 23.027c-0.201-0.532-0.409-1.274-0.474-2.497M5.901 23.027c0.007 0.019 0.014 0.037 0.021 0.055 0.255 0.688 0.66 1.312 1.185 1.825 0.513 0.525 1.137 0.929 1.825 1.185 0.552 0.215 1.331 0.44 2.658 0.501 1.339 0.061 1.753 0.073 5.084 0.073s3.745-0.012 5.085-0.073c1.329-0.061 2.106-0.287 2.657-0.5 0.689-0.255 1.312-0.66 1.826-1.185 0.525-0.513 0.929-1.136 1.185-1.825 0.215-0.552 0.44-1.331 0.501-2.658 0.061-1.339 0.073-1.754 0.073-5.084s-0.012-3.745-0.073-5.085c-0.061-1.336-0.289-2.114-0.504-2.665-0.28-0.724-0.636-1.271-1.182-1.818-0.545-0.544-1.091-0.9-1.816-1.181-0.553-0.216-1.332-0.443-2.666-0.504-0.116-0.005-0.225-0.010-0.33-0.015M5.427 20.53c-0.002-0.035-0.004-0.069-0.005-0.105-0.005-0.116-0.010-0.225-0.015-0.33M11.59 4.074c1.303-0.059 1.707-0.074 5.084-0.074s3.781 0.015 5.084 0.074M11.59 4.074h0.329M21.758 4.074h-0.329M21.758 4.074c1.219 0.056 2.006 0.247 2.673 0.505l0.009 0.003c0.679 0.256 1.295 0.657 1.803 1.174l0.007 0.007 0.007 0.007c0.518 0.509 0.919 1.124 1.174 1.803l0.004 0.011c0.259 0.666 0.449 1.451 0.505 2.671M11.919 4.074h9.51M11.919 4.074c1.103-0.048 1.713-0.059 4.755-0.059s3.652 0.010 4.755 0.059M11.919 4.074c-0.105 0.005-0.214 0.010-0.33 0.015-1.329 0.061-2.106 0.287-2.657 0.5-0.691 0.256-1.317 0.663-1.831 1.191-0.541 0.544-0.896 1.088-1.176 1.81-0.216 0.553-0.443 1.332-0.504 2.666-0.005 0.116-0.010 0.225-0.015 0.329M27.941 20.425c-0.056 1.22-0.246 2.005-0.504 2.672l-0.004 0.010c-0.256 0.679-0.657 1.295-1.174 1.803l-0.014 0.014c-0.509 0.519-1.125 0.919-1.803 1.174l-0.012 0.004c-0.666 0.259-1.451 0.449-2.671 0.505M5.407 20.096c-0.048-1.103-0.059-1.713-0.059-4.755s0.010-3.652 0.059-4.755M5.407 20.096l0-9.51M14.657 20.21c0.639 0.265 1.325 0.401 2.017 0.401 1.398 0 2.739-0.555 3.727-1.544s1.544-2.329 1.544-3.727-0.555-2.739-1.544-3.727c-0.989-0.988-2.329-1.544-3.727-1.544-0.692 0-1.378 0.136-2.017 0.401s-1.221 0.653-1.71 1.143c-0.489 0.489-0.878 1.070-1.143 1.71s-0.401 1.325-0.401 2.017 0.136 1.378 0.401 2.017c0.265 0.639 0.653 1.221 1.143 1.71s1.070 0.878 1.71 1.143zM12.935 11.602c0.992-0.992 2.336-1.549 3.739-1.549s2.747 0.557 3.739 1.549c0.992 0.992 1.549 2.336 1.549 3.739s-0.557 2.747-1.549 3.739c-0.992 0.992-2.337 1.549-3.739 1.549s-2.747-0.557-3.739-1.549c-0.992-0.992-1.549-2.337-1.549-3.739s0.557-2.747 1.549-3.739z">
      </path>
      <path
        d="M24.719 8.614c0 0.736-0.597 1.333-1.333 1.333s-1.333-0.597-1.333-1.333c0-0.736 0.597-1.333 1.333-1.333s1.333 0.597 1.333 1.333z">
      </path>
    </symbol>
    <symbol id="icon-facebook" viewBox="0 0 32 32">
      <path fill="none" stroke-linejoin="round" stroke-linecap="butt" stroke-miterlimit="4" stroke-width="2.2667"
        stroke="#568518"
        d="M21.761 17.499l0.702-4.341h-4.323v-2.822c0-1.187 0.603-2.347 2.533-2.347h1.993v-3.697c-1.161-0.18-2.333-0.278-3.509-0.292-3.558 0-5.881 2.083-5.881 5.847v3.31h-3.944v4.341h3.944v10.501h4.863v-10.501h3.621z">
      </path>
    </symbol>
    <symbol id="icon-search" viewBox="0 0 32 32">
      <path
        d="M20.667 18.667h-1.053l-0.373-0.36c1.6-1.867 2.427-4.413 1.973-7.12-0.627-3.707-3.72-6.667-7.453-7.12-5.64-0.693-10.387 4.053-9.693 9.693 0.453 3.733 3.413 6.827 7.12 7.453 2.707 0.453 5.253-0.373 7.12-1.973l0.36 0.373v1.053l5.667 5.667c0.547 0.547 1.44 0.547 1.987 0s0.547-1.44 0-1.987l-5.653-5.68zM12.667 18.667c-3.32 0-6-2.68-6-6s2.68-6 6-6c3.32 0 6 2.68 6 6s-2.68 6-6 6z">
      </path>
    </symbol>
    <symbol id="icon-reporting" viewBox="0 0 36 36">
      <path fill="#568518"
        d="M8 0h20c4.418 0 8 3.582 8 8v20c0 4.418-3.582 8-8 8h-20c-4.418 0-8-3.582-8-8v-20c0-4.418 3.582-8 8-8z"></path>
      <path fill="none" stroke="#fff" stroke-linejoin="round" stroke-linecap="round" stroke-miterlimit="4"
        stroke-width="2" d="M30 15l-4 5-4-11-4 18-4-11-4 7-4-5"></path>
    </symbol>
    <symbol id="icon-inventory" viewBox="0 0 36 36">
      <path fill="#568518"
        d="M8 0h20c4.418 0 8 3.582 8 8v20c0 4.418-3.582 8-8 8h-20c-4.418 0-8-3.582-8-8v-20c0-4.418 3.582-8 8-8z"></path>
      <path fill="#fff" opacity="0.5"
        d="M8 17c0-0.265 0.105-0.52 0.293-0.707s0.442-0.293 0.707-0.293h18c0.265 0 0.52 0.105 0.707 0.293s0.293 0.442 0.293 0.707v2c0 0.265-0.105 0.52-0.293 0.707s-0.442 0.293-0.707 0.293h-18c-0.265 0-0.52-0.105-0.707-0.293s-0.293-0.442-0.293-0.707v-2z">
      </path>
      <path fill="#fff" opacity="0.3"
        d="M8 24c0-0.265 0.105-0.52 0.293-0.707s0.442-0.293 0.707-0.293h18c0.265 0 0.52 0.105 0.707 0.293s0.293 0.442 0.293 0.707v2c0 0.265-0.105 0.52-0.293 0.707s-0.442 0.293-0.707 0.293h-18c-0.265 0-0.52-0.105-0.707-0.293s-0.293-0.442-0.293-0.707v-2z">
      </path>
      <path fill="#fff"
        d="M8 10c0-0.265 0.105-0.52 0.293-0.707s0.442-0.293 0.707-0.293h18c0.265 0 0.52 0.105 0.707 0.293s0.293 0.442 0.293 0.707v2c0 0.265-0.105 0.52-0.293 0.707s-0.442 0.293-0.707 0.293h-18c-0.265 0-0.52-0.105-0.707-0.293s-0.293-0.442-0.293-0.707v-2z">
      </path>
    </symbol>
    <symbol id="icon-contacts" viewBox="0 0 36 36">
      <path fill="#568518"
        d="M8 0h20c4.418 0 8 3.582 8 8v20c0 4.418-3.582 8-8 8h-20c-4.418 0-8-3.582-8-8v-20c0-4.418 3.582-8 8-8z"></path>
      <path fill="#fff" opacity="0.5"
        d="M25.778 25.778c0.39 0.39 1.027 0.393 1.384-0.028 1.836-2.164 2.842-4.912 2.838-7.75 0-6.627-5.373-12-12-12s-12 5.373-12 12c0 2.954 1.067 5.659 2.838 7.75 0.357 0.421 0.993 0.419 1.384 0.028 0.39-0.39 0.386-1.020 0.036-1.448-1.463-1.785-2.262-4.022-2.258-6.33 0-5.523 4.477-10 10-10s10 4.477 10 10c0.004 2.308-0.795 4.545-2.258 6.33-0.35 0.427-0.354 1.058 0.036 1.448z">
      </path>
      <path fill="#fff"
        d="M12 28.395v-0.395c0-1.591 0.632-3.117 1.757-4.243s2.651-1.757 4.243-1.757 3.117 0.632 4.243 1.757c1.125 1.125 1.757 2.651 1.757 4.243v0.395c-1.823 1.055-3.893 1.608-6 1.605-2.186 0-4.235-0.584-6-1.605zM21 16.5c0-1.933-0.5-3.5-3-3.5s-3 1.567-3 3.5c0 1.933 1.343 3.5 3 3.5s3-1.567 3-3.5z">
      </path>
    </symbol>
    <symbol id="icon-call" viewBox="0 0 24 24">
      <path fill="#568518"
        d="M6.54 5c0.060 0.89 0.21 1.76 0.45 2.59l-1.2 1.2c-0.41-1.2-0.67-2.47-0.76-3.79h1.51zM16.4 17.020c0.85 0.24 1.72 0.39 2.6 0.45v1.49c-1.32-0.090-2.59-0.35-3.8-0.75l1.2-1.19zM7.5 3h-3.5c-0.55 0-1 0.45-1 1 0 9.39 7.61 17 17 17 0.55 0 1-0.45 1-1v-3.49c0-0.55-0.45-1-1-1-1.24 0-2.45-0.2-3.57-0.57-0.1-0.040-0.21-0.050-0.31-0.050-0.26 0-0.51 0.1-0.71 0.29l-2.2 2.2c-2.83-1.45-5.15-3.76-6.59-6.59l2.2-2.2c0.28-0.28 0.36-0.67 0.25-1.020-0.37-1.12-0.57-2.32-0.57-3.57 0-0.55-0.45-1-1-1z">
      </path>
    </symbol>
    <symbol id="icon-place_pin" viewBox="0 0 24 24">
      <path fill="#568518"
        d="M12 12c-1.1 0-2-0.9-2-2s0.9-2 2-2c1.1 0 2 0.9 2 2s-0.9 2-2 2zM18 10.2c0-3.63-2.65-6.2-6-6.2s-6 2.57-6 6.2c0 2.34 1.95 5.44 6 9.14 4.050-3.7 6-6.8 6-9.14zM12 2c4.2 0 8 3.22 8 8.2 0 3.32-2.67 7.25-8 11.8-5.33-4.55-8-8.48-8-11.8 0-4.98 3.8-8.2 8-8.2z">
      </path>
    </symbol>
    <symbol id="icon-email" viewBox="0 0 24 24">
      <path fill="#568518"
        d="M22 6c0-1.1-0.9-2-2-2h-16c-1.1 0-2 0.9-2 2v12c0 1.1 0.9 2 2 2h16c1.1 0 2-0.9 2-2v-12zM20 6l-8 5-8-5h16zM20 18h-16v-10l8 5 8-5v10z">
      </path>
    </symbol>

  </defs>
</svg>